<svg width="120" height="120" viewBox="0 0 120 120" fill="none" xmlns="http://www.w3.org/2000/svg">
<path d="M91.4062 0.5C99.9679 0.5 106.982 3.27459 111.853 8.14653C116.725 13.0185 119.5 20.0321 119.5 28.5938V91.4062C119.5 99.9679 116.725 106.982 111.853 111.853C106.982 116.725 99.9679 119.5 91.4062 119.5H28.5938C20.0321 119.5 13.0185 116.725 8.14653 111.853C3.27459 106.982 0.5 99.9679 0.5 91.4062V28.5938C0.5 20.0321 3.27459 13.0185 8.14653 8.14653C13.0185 3.27459 20.0321 0.5 28.5938 0.5H91.4062Z" stroke="#A67CFF"/>
<path d="M48.16 74.32C48.16 78.736 51.328 80.944 57.664 80.944C64.064 80.944 67.264 78.96 67.264 74.992C67.264 72.88 66.176 71.152 64 69.808C61.824 68.464 59.168 67.344 56.032 66.448C52.96 65.552 49.856 64.528 46.72 63.376C43.648 62.16 41.024 60.304 38.848 57.808C36.672 55.248 35.584 52.08 35.584 48.304C35.584 32.24 45.92 24.208 66.592 24.208C74.144 24.208 79.84 25.648 83.68 28.528C87.584 31.344 89.536 35.28 89.536 40.336C89.536 42.192 89.28 43.984 88.768 45.712C88.32 47.376 87.84 48.56 87.328 49.264L86.56 50.416H69.568C70.976 48.944 71.68 47.088 71.68 44.848C71.68 40.688 68.96 38.608 63.52 38.608C56.672 38.608 53.248 40.784 53.248 45.136C53.248 47.312 54.336 49.04 56.512 50.32C58.688 51.6 61.312 52.624 64.384 53.392C67.52 54.096 70.656 54.992 73.792 56.08C76.928 57.168 79.584 58.992 81.76 61.552C83.936 64.048 85.024 67.312 85.024 71.344C85.024 79.472 82.592 85.52 77.728 89.488C72.864 93.392 65.376 95.344 55.264 95.344C45.152 95.344 38.24 93.552 34.528 89.968C31.776 87.28 30.4 83.568 30.4 78.832C30.4 77.04 30.592 75.088 30.976 72.976L31.264 71.44H48.544L48.352 72.592C48.224 73.232 48.16 73.808 48.16 74.32Z" fill="#A67CFF"/>
</svg>
